<svg width="32" height="32" viewBox="0 0 32 32" fill="none" xmlns="http://www.w3.org/2000/svg">
<rect width="32" height="32" rx="16" fill="white" fill-opacity="0.05"/>
<path d="M22.0273 11.75H7.18487C7.14817 11.7495 7.11243 11.7382 7.08208 11.7176C7.05172 11.6969 7.0281 11.6678 7.01412 11.6339C7.00015 11.6 6.99644 11.5627 7.00346 11.5266C7.01048 11.4906 7.02792 11.4574 7.05362 11.4312L10.3161 8.165C10.4233 8.05994 10.5672 8.00076 10.7173 8H25.5598C25.5965 8.00052 25.6322 8.01179 25.6626 8.03243C25.6929 8.05306 25.7165 8.08215 25.7305 8.11609C25.7445 8.15003 25.7482 8.18732 25.7412 8.22335C25.7342 8.25937 25.7167 8.29254 25.691 8.31875L22.4285 11.585C22.3213 11.69 22.1774 11.7492 22.0273 11.75Z" fill="white"/>
<path d="M22.0273 23.0001H7.18487C7.14817 22.9996 7.11243 22.9883 7.08208 22.9677C7.05172 22.947 7.0281 22.918 7.01412 22.884C7.00015 22.8501 6.99644 22.8128 7.00346 22.7768C7.01048 22.7407 7.02792 22.7076 7.05362 22.6814L10.3161 19.4151C10.4233 19.3101 10.5672 19.2509 10.7173 19.2501H25.5598C25.5965 19.2506 25.6322 19.2619 25.6626 19.2825C25.6929 19.3032 25.7165 19.3323 25.7305 19.3662C25.7445 19.4002 25.7482 19.4374 25.7412 19.4735C25.7342 19.5095 25.7167 19.5427 25.691 19.5689L22.4285 22.8351C22.3213 22.9402 22.1774 22.9993 22.0273 23.0001Z" fill="white"/>
<path d="M10.7173 17.3751H25.5598C25.5965 17.3746 25.6322 17.3633 25.6626 17.3427C25.6929 17.322 25.7165 17.293 25.7305 17.259C25.7445 17.2251 25.7482 17.1878 25.7412 17.1518C25.7342 17.1157 25.7167 17.0826 25.691 17.0564L22.4285 13.7901C22.3213 13.6851 22.1774 13.6259 22.0273 13.6251H7.18487C7.14817 13.6256 7.11243 13.6369 7.08208 13.6575C7.05172 13.6782 7.0281 13.7073 7.01412 13.7412C7.00015 13.7752 6.99644 13.8124 7.00346 13.8485C7.01048 13.8845 7.02792 13.9177 7.05362 13.9439L10.3161 17.2101C10.4233 17.3152 10.5672 17.3743 10.7173 17.3751Z" fill="white"/>
</svg>
